<mxfile host="65bd71144e">
    <diagram id="tm7hxJK_eVrDZJQPRUnk" name="Level 0">
        <mxGraphModel dx="1214" dy="827" grid="1" gridSize="10" guides="1" tooltips="1" connect="1" arrows="1" fold="1" page="1" pageScale="1" pageWidth="827" pageHeight="1169" math="0" shadow="0">
            <root>
                <mxCell id="0"/>
                <mxCell id="1" parent="0"/>
                <mxCell id="2" value="" style="ellipse;whiteSpace=wrap;html=1;aspect=fixed;fillColor=#000000;aspect=fixed;" parent="1" vertex="1">
                    <mxGeometry x="310" y="330" width="30" height="30" as="geometry"/>
                </mxCell>
                <mxCell id="4" value="Define Shape(s)" style="rounded=1;whiteSpace=wrap;html=1;strokeWidth=2;arcSize=37" parent="1" vertex="1">
                    <mxGeometry x="280" y="420" width="90" height="40" as="geometry"/>
                </mxCell>
                <mxCell id="5" value="" style="edgeStyle=orthogonalEdgeStyle;rounded=1;orthogonalLoop=1;jettySize=auto;html=1;exitX=0.5;exitY=1;exitDx=0;exitDy=0;entryX=0.5;entryY=0;entryDx=0;entryDy=0;startArrow=none;startFill=0;endArrow=classic;endFill=1;startSize=6;endSize=6;align=center;fontSize=12;labelBackgroundColor=none;" parent="1" source="2" target="4" edge="1">
                    <mxGeometry width="40" height="40" relative="1" as="geometry">
                        <mxPoint x="310" y="530" as="sourcePoint"/>
                        <mxPoint x="350" y="490" as="targetPoint"/>
                    </mxGeometry>
                </mxCell>
                <mxCell id="6" value="" style="rhombus;html=1;strokeWidth=2;aspect=fixed;" parent="1" vertex="1">
                    <mxGeometry x="310" y="520" width="30" height="30" as="geometry"/>
                </mxCell>
                <mxCell id="7" value="" style="edgeStyle=orthogonalEdgeStyle;rounded=1;orthogonalLoop=1;jettySize=auto;html=1;exitX=0.5;exitY=1;exitDx=0;exitDy=0;entryX=0.5;entryY=0;entryDx=0;entryDy=0;startArrow=none;startFill=0;endArrow=classic;endFill=1;startSize=6;endSize=6;align=center;fontSize=12;labelBackgroundColor=none;" parent="1" source="4" target="6" edge="1">
                    <mxGeometry width="40" height="40" relative="1" as="geometry">
                        <mxPoint x="440" y="630" as="sourcePoint"/>
                        <mxPoint x="480" y="590" as="targetPoint"/>
                    </mxGeometry>
                </mxCell>
                <mxCell id="8" value="" style="edgeStyle=orthogonalEdgeStyle;rounded=1;orthogonalLoop=1;jettySize=auto;html=1;exitX=1;exitY=0.5;exitDx=0;exitDy=0;entryX=0.5;entryY=0;entryDx=0;entryDy=0;startArrow=none;startFill=0;endArrow=classic;endFill=1;startSize=6;endSize=6;align=center;fontSize=12;labelBackgroundColor=none;" parent="1" source="6" target="10" edge="1">
                    <mxGeometry width="40" height="40" relative="1" as="geometry">
                        <mxPoint x="440" y="630" as="sourcePoint"/>
                        <mxPoint x="480" y="590" as="targetPoint"/>
                    </mxGeometry>
                </mxCell>
                <mxCell id="9" value="Terminal Is Output" style="text;html=1;align=center;verticalAlign=middle;resizable=0;points=[];autosize=1;strokeColor=none;fillColor=none;" parent="1" vertex="1">
                    <mxGeometry x="354" y="508" width="120" height="30" as="geometry"/>
                </mxCell>
                <mxCell id="10" value="Determine ASCII Characters for each pixel(s) based on style" style="rounded=1;whiteSpace=wrap;html=1;strokeWidth=2;arcSize=37" parent="1" vertex="1">
                    <mxGeometry x="370" y="560" width="130" height="60" as="geometry"/>
                </mxCell>
                <mxCell id="11" value="" style="edgeStyle=orthogonalEdgeStyle;rounded=1;orthogonalLoop=1;jettySize=auto;html=1;exitX=0.5;exitY=1;exitDx=0;exitDy=0;startArrow=none;startFill=0;endArrow=classic;endFill=1;startSize=6;endSize=6;align=center;fontSize=12;labelBackgroundColor=none;entryX=0.5;entryY=0;entryDx=0;entryDy=0;" edge="1" parent="1" source="10" target="12">
                    <mxGeometry width="40" height="40" relative="1" as="geometry">
                        <mxPoint x="500" y="790" as="sourcePoint"/>
                        <mxPoint x="435" y="700" as="targetPoint"/>
                    </mxGeometry>
                </mxCell>
                <mxCell id="12" value="stdout characters" style="rounded=1;whiteSpace=wrap;html=1;strokeWidth=2;arcSize=37" vertex="1" parent="1">
                    <mxGeometry x="389" y="670" width="90" height="40" as="geometry"/>
                </mxCell>
                <mxCell id="13" value="" style="shape=endactivity;strokeWidth=2;fillColor=#000000;aspect=fixed;" vertex="1" parent="1">
                    <mxGeometry x="310" y="870" width="30" height="30" as="geometry"/>
                </mxCell>
                <mxCell id="0.11" value="Best viewed with the &lt;a href=&quot;https://github.com/ariel-bentu/tam-drawio&quot;&gt;TAM plugin&lt;/a&gt;" style="text;html=1;shape=tamPluginMissing;" vertex="1" connectable="0" parent="1">
                    <mxGeometry x="280" y="930" width="200" height="25" as="geometry"/>
                </mxCell>
                <mxCell id="14" value="" style="rhombus;html=1;strokeWidth=2;aspect=fixed;" vertex="1" parent="1">
                    <mxGeometry x="310" y="780" width="30" height="30" as="geometry"/>
                </mxCell>
                <mxCell id="15" value="" style="edgeStyle=orthogonalEdgeStyle;rounded=1;orthogonalLoop=1;jettySize=auto;html=1;exitX=0.5;exitY=1;exitDx=0;exitDy=0;entryX=0.5;entryY=0;entryDx=0;entryDy=0;startArrow=none;startFill=0;endArrow=classic;endFill=1;startSize=6;endSize=6;align=center;fontSize=12;labelBackgroundColor=none;" edge="1" parent="1" source="14" target="13">
                    <mxGeometry width="40" height="40" relative="1" as="geometry">
                        <mxPoint x="570" y="730" as="sourcePoint"/>
                        <mxPoint x="610" y="690" as="targetPoint"/>
                    </mxGeometry>
                </mxCell>
                <mxCell id="16" value="" style="edgeStyle=orthogonalEdgeStyle;rounded=1;orthogonalLoop=1;jettySize=auto;html=1;exitX=0.5;exitY=1;exitDx=0;exitDy=0;entryX=1;entryY=0.5;entryDx=0;entryDy=0;startArrow=none;startFill=0;endArrow=classic;endFill=1;startSize=6;endSize=6;align=center;fontSize=12;labelBackgroundColor=none;" edge="1" parent="1" source="12" target="14">
                    <mxGeometry width="40" height="40" relative="1" as="geometry">
                        <mxPoint x="570" y="730" as="sourcePoint"/>
                        <mxPoint x="610" y="690" as="targetPoint"/>
                    </mxGeometry>
                </mxCell>
                <mxCell id="17" value="" style="edgeStyle=orthogonalEdgeStyle;rounded=1;orthogonalLoop=1;jettySize=auto;html=1;exitX=0;exitY=0.5;exitDx=0;exitDy=0;startArrow=none;startFill=0;endArrow=classic;endFill=1;startSize=6;endSize=6;align=center;fontSize=12;labelBackgroundColor=none;entryX=0.5;entryY=0;entryDx=0;entryDy=0;" edge="1" parent="1" source="6" target="22">
                    <mxGeometry width="40" height="40" relative="1" as="geometry">
                        <mxPoint x="490" y="700" as="sourcePoint"/>
                        <mxPoint x="220" y="570" as="targetPoint"/>
                    </mxGeometry>
                </mxCell>
                <mxCell id="21" value="SVG Is Output" style="text;html=1;align=center;verticalAlign=middle;resizable=0;points=[];autosize=1;strokeColor=none;fillColor=none;" vertex="1" parent="1">
                    <mxGeometry x="205" y="508" width="100" height="30" as="geometry"/>
                </mxCell>
                <mxCell id="22" value="Build .svg file based on Shapes and Style information" style="rounded=1;whiteSpace=wrap;html=1;strokeWidth=2;arcSize=37" vertex="1" parent="1">
                    <mxGeometry x="150" y="630" width="120" height="50" as="geometry"/>
                </mxCell>
                <mxCell id="24" value="" style="edgeStyle=orthogonalEdgeStyle;rounded=1;orthogonalLoop=1;jettySize=auto;html=1;exitX=0.5;exitY=1;exitDx=0;exitDy=0;entryX=0;entryY=0.5;entryDx=0;entryDy=0;startArrow=none;startFill=0;endArrow=classic;endFill=1;startSize=6;endSize=6;align=center;fontSize=12;labelBackgroundColor=none;" edge="1" parent="1" source="22" target="14">
                    <mxGeometry width="40" height="40" relative="1" as="geometry">
                        <mxPoint x="520" y="740" as="sourcePoint"/>
                        <mxPoint x="560" y="700" as="targetPoint"/>
                    </mxGeometry>
                </mxCell>
            </root>
        </mxGraphModel>
    </diagram>
</mxfile>